<svg width="228" height="212" viewBox="0 0 228 212" fill="none" xmlns="http://www.w3.org/2000/svg">
<path d="M214 100C214 155.228 169.228 200 114 200C58.7715 200 14 155.228 14 100C14 44.7715 58.7715 0 114 0C169.228 0 214 44.7715 214 100Z" fill="#FAF6D4"/>
<path d="M33.2479 93.6181L13.7341 85.8585L16.7223 78.5887C17.3991 76.9424 18.2502 75.6344 19.2758 74.6648C20.2828 73.6879 21.4174 73.0845 22.6795 72.8546C23.9306 72.5988 25.2624 72.7518 26.6748 73.3134C28.0501 73.8603 29.1064 74.657 29.8439 75.7035C30.5703 76.7241 30.9597 77.9335 31.012 79.3317C31.0457 80.7225 30.7242 82.2411 30.0475 83.8874L27.5269 90.0195L26.9554 88.727L34.0919 91.5648L33.2479 93.6181ZM38.6998 80.3549L29.566 82.5338L30.4785 80.314L39.6236 78.1073L38.6998 80.3549ZM27.1227 88.7935L25.7706 89.3212L28.2684 83.2445C29.0668 81.3022 29.2439 79.6616 28.7996 78.3228C28.3629 76.9654 27.3733 75.9801 25.8308 75.3667C24.2697 74.7459 22.8526 74.7743 21.5795 75.4518C20.314 76.1107 19.2821 77.4113 18.4837 79.3537L15.9858 85.4303L15.3865 84.1267L27.1227 88.7935Z" fill="black"/>
<path d="M57.7107 54.0608C56.4739 55.1377 55.1604 55.8307 53.7703 56.1395C52.3668 56.4336 50.9997 56.3645 49.669 55.9322C48.3249 55.4851 47.131 54.6819 46.0874 53.5224C45.0437 52.3629 44.3694 51.1205 44.0643 49.7952C43.7743 48.4567 43.8393 47.1539 44.2592 45.8868C44.6808 44.5916 45.4421 43.4646 46.5432 42.5059C47.6594 41.534 48.8748 40.9264 50.1895 40.6832C51.5058 40.412 52.821 40.5131 54.1349 40.9864C55.4355 41.4449 56.6143 42.2613 57.6713 43.4357C57.7382 43.51 57.8043 43.5983 57.8695 43.7007C57.9364 43.775 58.01 43.8567 58.0903 43.9459L47.7507 52.9491L46.6869 51.7673L56.1668 43.5128L55.9548 44.5326C55.1921 43.6853 54.3278 43.0988 53.362 42.7731C52.3979 42.4194 51.4319 42.3325 50.4639 42.5125C49.4959 42.6925 48.5971 43.1437 47.7675 43.866C46.953 44.5752 46.3887 45.398 46.0746 46.3344C45.7606 47.2708 45.7236 48.2311 45.9637 49.2152C46.2038 50.1993 46.7119 51.1225 47.4879 51.9847L47.7087 52.2299C48.5115 53.1218 49.4167 53.7389 50.4244 54.0813C51.4338 54.3956 52.4668 54.4373 53.5236 54.2066C54.5821 53.9478 55.5714 53.4178 56.4915 52.6166C57.2155 51.9862 57.773 51.2754 58.1639 50.4842C58.57 49.6799 58.7651 48.8206 58.7493 47.9063L60.5775 48.144C60.6116 49.228 60.3761 50.2815 59.871 51.3047C59.381 52.3146 58.6609 53.2334 57.7107 54.0608Z" fill="black"/>
<path d="M86.2999 36.379C85.0663 36.7893 83.8407 37.0072 82.6229 37.0329C81.3986 37.0396 80.3823 36.8824 79.574 36.5611L79.9387 34.6694C80.7021 34.9213 81.6167 35.0597 82.6826 35.0846C83.7421 35.0905 84.7937 34.9199 85.8375 34.5727C87.2608 34.0993 88.2108 33.541 88.6875 32.8977C89.1577 32.2354 89.2661 31.5355 89.0124 30.7979C88.8239 30.2494 88.4973 29.8838 88.0326 29.7011C87.5805 29.4932 87.0437 29.4083 86.4224 29.4464C85.7945 29.4655 85.11 29.5351 84.3688 29.6552C83.6276 29.7752 82.8799 29.8764 82.1257 29.9586C81.3905 30.0345 80.6894 30.0253 80.0226 29.931C79.3492 29.8177 78.7444 29.5657 78.2083 29.175C77.6911 28.778 77.2862 28.1539 76.9936 27.3028C76.714 26.4895 76.6913 25.6856 76.9257 24.8911C77.1601 24.0965 77.652 23.3744 78.4014 22.7247C79.1633 22.0498 80.1801 21.5008 81.4516 21.0779C82.4194 20.756 83.4328 20.5665 84.4917 20.5094C85.5441 20.4334 86.455 20.4992 87.2243 20.707L86.8978 22.6176C86.0776 22.3846 85.2553 22.2998 84.4312 22.3631C83.6006 22.4076 82.8057 22.556 82.0466 22.8085C80.6991 23.2567 79.7841 23.8245 79.3014 24.5119C78.8312 25.1741 78.7196 25.8646 78.9667 26.5833C79.1618 27.1507 79.4854 27.5383 79.9376 27.7463C80.4087 27.9479 80.9615 28.0485 81.5958 28.0483C82.2427 28.0229 82.9272 27.9533 83.6494 27.8395C84.3906 27.7195 85.1321 27.6309 85.8738 27.5739C86.628 27.4917 87.3385 27.4977 88.0054 27.5921C88.6848 27.6612 89.283 27.8943 89.8002 28.2913C90.3298 28.6631 90.7345 29.2557 91.0141 30.0689C91.3132 30.939 91.3266 31.7775 91.0543 32.5847C90.7944 33.3667 90.2613 34.0919 89.4549 34.7606C88.661 35.404 87.6094 35.9435 86.2999 36.379Z" fill="black"/>
<path d="M118.878 30.87C117.543 30.7508 116.401 30.3977 115.451 29.8109C114.5 29.224 113.793 28.4078 113.327 27.3622C112.881 26.3184 112.727 25.0497 112.865 23.556L113.706 14.4448L115.828 14.6343L115.008 23.5066C114.854 25.1794 115.145 26.4805 115.883 27.4099C116.643 28.321 117.769 28.8434 119.263 28.9768C120.359 29.0747 121.325 28.9402 122.163 28.5732C123.022 28.1881 123.7 27.5861 124.197 26.7671C124.715 25.9499 125.029 24.9439 125.139 23.7489L125.898 15.5339L128.019 15.7234L126.571 31.4067L124.539 31.2252L124.936 26.9235L125.193 27.7295C124.588 28.8401 123.728 29.6769 122.611 30.2398C121.517 30.7845 120.272 30.9946 118.878 30.87Z" fill="black"/>
<path d="M178.627 35.9423C179.644 36.7202 180.37 37.5908 180.806 38.5542C181.271 39.5141 181.399 40.5442 181.192 41.6445C181 42.7569 180.433 43.9092 179.49 45.1013L173.813 52.2773L172.122 50.9828L177.668 43.9715C178.698 42.6696 179.156 41.4462 179.042 40.3012C178.956 39.1527 178.341 38.1409 177.198 37.2657C176.34 36.6094 175.451 36.2185 174.53 36.0931C173.638 35.9641 172.75 36.1031 171.867 36.5102C171.012 36.9137 170.213 37.5861 169.468 38.5272L164.331 45.0209L162.64 43.7264L168.186 36.7151C169.216 35.4132 169.674 34.1898 169.56 33.0448C169.458 31.8841 168.835 30.8662 167.692 29.9911C166.85 29.3469 165.969 28.9621 165.048 28.8366C164.14 28.6955 163.244 28.8285 162.361 29.2356C161.507 29.6391 160.707 30.3114 159.962 31.2525L154.825 37.7463L153.134 36.4518L162.906 24.0996L164.526 25.3394L161.883 28.6803L162.086 27.8916C163.174 27.2892 164.338 27.0592 165.577 27.2015C166.844 27.3402 168.057 27.8532 169.217 28.7405C170.44 29.6765 171.238 30.7785 171.612 32.0466C171.998 33.299 171.84 34.6263 171.139 36.0285L170.677 35.2592C171.836 34.5349 173.118 34.2194 174.523 34.3126C175.957 34.4024 177.325 34.9456 178.627 35.9423Z" fill="black"/>
<path d="M194.724 81.5684C194.142 80.035 193.951 78.5714 194.149 77.1778C194.367 75.7773 194.915 74.5431 195.793 73.4753C196.69 72.4005 197.871 71.5945 199.336 71.0572C200.8 70.5199 202.213 70.3532 203.573 70.5569C204.941 70.7794 206.15 71.3159 207.199 72.1663C208.275 73.0285 209.072 74.1422 209.589 75.5073C210.114 76.8911 210.26 78.2331 210.025 79.5332C209.817 80.8452 209.257 82.0198 208.346 83.0571C207.454 84.0876 206.266 84.8749 204.782 85.4191C204.688 85.4535 204.582 85.4821 204.462 85.5047C204.368 85.5391 204.265 85.577 204.152 85.6183L199.29 72.7993L200.783 72.2516L205.241 84.0048L204.351 83.4364C205.421 83.0437 206.281 82.4621 206.93 81.6915C207.605 80.9327 208.028 80.0745 208.199 79.1168C208.371 78.1592 208.262 77.1661 207.871 76.1376C207.488 75.1278 206.91 74.3069 206.135 73.675C205.361 73.0431 204.466 72.6578 203.451 72.519C202.436 72.3801 201.384 72.5105 200.295 72.91L199.985 73.0237C198.859 73.437 197.956 74.0452 197.276 74.8483C196.623 75.6632 196.219 76.5997 196.064 77.6577C195.935 78.7275 196.087 79.8328 196.519 80.9735C196.86 81.8711 197.335 82.6447 197.945 83.2943C198.562 83.9626 199.305 84.4568 200.175 84.7767L199.305 86.374C198.269 86.0088 197.356 85.4064 196.567 84.5669C195.785 83.746 195.17 82.7465 194.724 81.5684Z" fill="black"/>
<path d="M194.752 118.624L214.266 126.384L211.278 133.654C210.601 135.3 209.75 136.608 208.724 137.578C207.717 138.555 206.583 139.158 205.321 139.388C204.069 139.644 202.738 139.491 201.325 138.929C199.95 138.382 198.894 137.585 198.156 136.539C197.43 135.518 197.04 134.309 196.988 132.911C196.954 131.52 197.276 130.001 197.953 128.355L200.473 122.223L201.045 123.515L193.908 120.678L194.752 118.624ZM189.3 131.888L198.434 129.709L197.522 131.928L188.376 134.135L189.3 131.888ZM200.877 123.449L202.229 122.921L199.732 128.998C198.933 130.94 198.756 132.581 199.2 133.92C199.637 135.277 200.627 136.262 202.169 136.876C203.73 137.496 205.147 137.468 206.421 136.791C207.686 136.132 208.718 134.831 209.516 132.889L212.014 126.812L212.613 128.116L200.877 123.449Z" fill="black"/>
<path d="M170.289 158.181C171.526 157.104 172.84 156.412 174.23 156.103C175.633 155.809 177 155.878 178.331 156.31C179.675 156.757 180.869 157.56 181.913 158.72C182.956 159.879 183.631 161.122 183.936 162.447C184.226 163.785 184.161 165.088 183.741 166.355C183.319 167.651 182.558 168.778 181.457 169.736C180.341 170.708 179.125 171.316 177.811 171.559C176.494 171.83 175.179 171.729 173.865 171.256C172.565 170.797 171.386 169.981 170.329 168.807C170.262 168.732 170.196 168.644 170.131 168.542C170.064 168.467 169.99 168.385 169.91 168.296L180.249 159.293L181.313 160.475L171.833 168.729L172.045 167.71C172.808 168.557 173.672 169.143 174.638 169.469C175.602 169.823 176.568 169.91 177.536 169.73C178.504 169.55 179.403 169.099 180.233 168.376C181.047 167.667 181.611 166.844 181.925 165.908C182.239 164.971 182.276 164.011 182.036 163.027C181.796 162.043 181.288 161.12 180.512 160.258L180.291 160.012C179.488 159.12 178.583 158.503 177.576 158.161C176.566 157.847 175.533 157.805 174.476 158.036C173.418 158.294 172.429 158.824 171.508 159.626C170.784 160.256 170.227 160.967 169.836 161.758C169.43 162.562 169.235 163.422 169.251 164.336L167.422 164.098C167.388 163.014 167.624 161.961 168.129 160.938C168.619 159.928 169.339 159.009 170.289 158.181Z" fill="black"/>
<path d="M141.7 175.863C142.934 175.453 144.159 175.235 145.377 175.209C146.601 175.202 147.618 175.359 148.426 175.681L148.061 177.572C147.298 177.32 146.383 177.182 145.317 177.157C144.258 177.151 143.206 177.322 142.163 177.669C140.739 178.143 139.789 178.701 139.312 179.344C138.842 180.006 138.734 180.706 138.988 181.444C139.176 181.992 139.503 182.358 139.967 182.541C140.419 182.749 140.956 182.834 141.578 182.795C142.205 182.776 142.89 182.707 143.631 182.587C144.372 182.467 145.12 182.365 145.874 182.283C146.61 182.207 147.311 182.216 147.977 182.311C148.651 182.424 149.256 182.676 149.792 183.067C150.309 183.464 150.714 184.088 151.006 184.939C151.286 185.752 151.309 186.556 151.074 187.351C150.84 188.145 150.348 188.867 149.599 189.517C148.837 190.192 147.82 190.741 146.548 191.164C145.581 191.486 144.567 191.675 143.508 191.732C142.456 191.808 141.545 191.743 140.776 191.535L141.102 189.624C141.922 189.857 142.745 189.942 143.569 189.879C144.399 189.834 145.194 189.686 145.953 189.433C147.301 188.985 148.216 188.417 148.699 187.73C149.169 187.068 149.28 186.377 149.033 185.659C148.838 185.091 148.515 184.703 148.062 184.496C147.591 184.294 147.039 184.193 146.404 184.194C145.757 184.219 145.073 184.289 144.351 184.402C143.609 184.522 142.868 184.611 142.126 184.668C141.372 184.75 140.661 184.744 139.995 184.65C139.315 184.581 138.717 184.348 138.2 183.951C137.67 183.579 137.266 182.986 136.986 182.173C136.687 181.303 136.673 180.464 136.946 179.657C137.206 178.875 137.739 178.15 138.545 177.481C139.339 176.838 140.391 176.298 141.7 175.863Z" fill="black"/>
<path d="M109.122 181.372C110.457 181.491 111.599 181.844 112.55 182.431C113.5 183.018 114.207 183.834 114.673 184.88C115.119 185.924 115.273 187.193 115.135 188.686L114.294 197.797L112.172 197.608L112.992 188.736C113.146 187.063 112.855 185.762 112.117 184.832C111.357 183.921 110.231 183.399 108.737 183.265C107.641 183.167 106.675 183.302 105.837 183.669C104.978 184.054 104.3 184.656 103.803 185.475C103.285 186.292 102.971 187.298 102.861 188.493L102.102 196.708L99.9809 196.519L101.429 180.835L103.461 181.017L103.064 185.319L102.807 184.513C103.412 183.402 104.272 182.565 105.389 182.002C106.483 181.458 107.728 181.248 109.122 181.372Z" fill="black"/>
<path d="M49.3728 176.3C48.3563 175.522 47.6299 174.651 47.1937 173.688C46.7291 172.728 46.6005 171.698 46.808 170.598C46.9996 169.485 47.5669 168.333 48.51 167.141L54.1869 159.965L55.8784 161.259L50.3318 168.271C49.3019 169.573 48.844 170.796 48.9581 171.941C49.044 173.089 49.6587 174.101 50.8023 174.976C51.6599 175.633 52.5491 176.024 53.4698 176.149C54.3622 176.278 55.2499 176.139 56.1329 175.732C56.9876 175.328 57.7872 174.656 58.5317 173.715L63.6689 167.221L65.3604 168.516L59.8138 175.527C58.7839 176.829 58.326 178.052 58.4401 179.197C58.5419 180.358 59.1645 181.376 60.3081 182.251C61.1499 182.895 62.0311 183.28 62.9518 183.406C63.8601 183.547 64.7557 183.414 65.6387 183.007C66.4934 182.603 67.293 181.931 68.0375 180.99L73.1747 174.496L74.8662 175.79L65.0945 188.143L63.4744 186.903L66.1174 183.562L65.9142 184.351C64.8257 184.953 63.6621 185.183 62.4232 185.041C61.1561 184.902 59.9428 184.389 58.7833 183.502C57.5604 182.566 56.762 181.464 56.3883 180.196C56.0021 178.943 56.1597 177.616 56.861 176.214L57.3234 176.983C56.1639 177.707 54.8816 178.023 53.4765 177.93C52.0431 177.84 50.6752 177.297 49.3728 176.3Z" fill="black"/>
<path d="M33.2768 130.674C33.8584 132.207 34.0498 133.671 33.8511 135.064C33.6337 136.465 33.0858 137.699 32.2074 138.767C31.3103 139.842 30.1294 140.648 28.6649 141.185C27.2004 141.722 25.7878 141.889 24.4272 141.685C23.0595 141.463 21.8507 140.926 20.801 140.076C19.7254 139.214 18.9287 138.1 18.411 136.735C17.8862 135.351 17.7409 134.009 17.975 132.709C18.1833 131.397 18.7431 130.222 19.6544 129.185C20.5469 128.155 21.7348 127.367 23.2182 126.823C23.312 126.789 23.4189 126.76 23.5386 126.738C23.6325 126.703 23.7358 126.665 23.8484 126.624L28.7101 139.443L27.2173 139.991L22.7599 128.237L23.6493 128.806C22.579 129.198 21.7195 129.78 21.0706 130.551C20.3959 131.31 19.9728 132.168 19.8012 133.125C19.6297 134.083 19.739 135.076 20.129 136.105C20.512 137.114 21.0907 137.935 21.865 138.567C22.6394 139.199 23.5342 139.584 24.5493 139.723C25.5644 139.862 26.6165 139.732 27.7055 139.332L28.0154 139.218C29.1419 138.805 30.0449 138.197 30.7242 137.394C31.3776 136.579 31.7818 135.643 31.9366 134.585C32.0656 133.515 31.9138 132.409 31.4812 131.269C31.1408 130.371 30.6656 129.597 30.0556 128.948C29.4385 128.28 28.695 127.785 27.8251 127.466L28.6951 125.868C29.732 126.233 30.6448 126.836 31.4338 127.675C32.2157 128.496 32.83 129.496 33.2768 130.674Z" fill="black"/>
</svg>
