<svg width="982" height="162" viewBox="0 0 982 162" fill="none" xmlns="http://www.w3.org/2000/svg">
<path d="M11.0514 110.493L9.05534 111.183L4.14939 90.312L6.14548 89.622L11.0514 110.493Z" fill="black"/>
<path d="M31.3877 103.604L29.3803 104.26L24.7269 83.331L26.7343 82.6746L28.9846 92.7954C28.9599 90.1899 30.2352 87.5613 33.2159 86.5866C36.0445 85.6616 38.3192 86.7942 39.0832 90.2303L41.3335 100.351L39.3261 101.008L37.1799 91.3553C36.6382 88.9188 35.2707 87.7576 32.7767 88.5732C29.6439 89.5976 28.8804 92.3269 29.4569 94.9196L31.3877 103.604Z" fill="black"/>
<path d="M49.8314 97.9766C47.4194 98.7338 45.7583 97.8194 45.3308 95.8165C44.91 93.8449 46.0778 92.1426 47.9229 90.5616L52.9252 86.2198L52.8985 86.0947C52.4175 83.8414 51.0989 82.8529 48.7175 83.6004C46.5193 84.2905 45.2055 86.072 44.7963 87.9702L43.0846 86.9715C43.6665 85.1192 45.423 82.6645 48.5371 81.6869C51.9566 80.6135 54.1616 82.0918 54.8763 85.4404L56.3792 92.4818C56.5462 93.2642 56.9422 93.4404 57.6444 93.22L58.4993 92.9516L58.8933 94.798L57.5194 95.2293C56.054 95.6893 54.9367 95.3388 54.5292 93.4298L54.1886 91.8338C54.161 94.1465 52.7623 97.0565 49.8314 97.9766ZM47.2857 94.9023C47.5529 96.1541 48.6091 96.5237 50.0441 96.0733C52.7613 95.2203 54.3155 92.4284 53.8813 90.3942L53.3136 87.7341L49.045 91.5451C47.6177 92.7945 47.0453 93.7756 47.2857 94.9023Z" fill="black"/>
<path d="M69.8763 91.4588L67.364 92.2163L58.734 78.8411L60.9399 78.176L66.0027 86.369L68.3601 90.2517L68.8826 85.5007L70.1925 75.3864L72.3372 74.7398L69.8763 91.4588Z" fill="black"/>
<path d="M85.9004 87.0641C81.7807 88.2539 78.3605 86.2223 77.38 81.2297C76.4181 76.3312 78.5746 72.5893 82.5712 71.435C86.5986 70.2718 89.6622 72.3069 90.5563 76.86C90.6303 77.2368 90.6428 77.6313 90.6614 77.8914L79.4093 81.1413C80.2723 84.8738 82.6406 86.1806 85.5612 85.3371C88.5433 84.4758 89.5077 82.4386 89.8635 80.7764L91.3831 81.897C90.7016 84.0515 89.0362 86.1584 85.9004 87.0641ZM82.9042 73.1306C80.1988 73.912 78.7548 76.154 79.1441 79.6252L88.6131 76.8903C87.7626 73.5524 85.6096 72.3492 82.9042 73.1306Z" fill="black"/>
<path d="M110.715 80.1211C108.273 80.7758 106.635 79.7951 106.268 77.7803C105.906 75.797 107.129 74.1482 109.028 72.6485L114.177 68.5272L114.154 68.4012C113.741 66.1346 112.449 65.0942 110.038 65.7406C107.813 66.3374 106.441 68.0591 105.972 69.9347L104.286 68.8679C104.927 67.0452 106.763 64.6706 109.916 63.8252C113.377 62.897 115.543 64.4626 116.157 67.831L117.449 74.9143C117.592 75.7013 117.984 75.8935 118.695 75.7028L119.56 75.4708L119.899 77.3282L118.508 77.7011C117.024 78.0989 115.915 77.703 115.565 75.7827L115.272 74.1772C115.173 76.482 113.682 79.3254 110.715 80.1211ZM108.256 76.9499C108.486 78.2092 109.533 78.6217 110.986 78.2321C113.737 77.4945 115.381 74.7753 115.008 72.729L114.52 70.0532L110.123 73.6757C108.654 74.8622 108.049 75.8166 108.256 76.9499Z" fill="black"/>
<path d="M140.909 72.2989C137.866 73.0543 134.774 72.3752 133.373 69.6327L134.698 68.0874C135.51 70.0228 137.661 71.2642 140.673 70.5164C142.661 70.0231 143.827 68.8789 143.561 67.3012C143.294 65.7235 141.863 65.487 139.764 65.5148L137.666 65.5426C135.432 65.538 133.057 65.0756 132.599 62.362C132.157 59.743 133.93 57.5935 137.005 56.8303C140.172 56.044 142.525 57.1368 143.632 59.0974L142.276 60.6504C141.247 58.769 139.502 58.0185 137.173 58.5966C135.372 59.0437 134.242 60.2117 134.508 61.7894C134.775 63.3671 135.989 63.6576 138.253 63.6544L140.326 63.6659C143.565 63.6838 145.026 64.6692 145.388 66.8149C145.878 69.7178 143.674 71.6128 140.909 72.2989Z" fill="black"/>
<path d="M156.241 68.6162C153.968 69.1548 151.959 68.1221 151.516 65.3735L149.953 55.6746L147.525 56.2501L147.265 54.6389L149.694 54.0634L149.343 51.8835L151.117 49.8559L151.718 53.5838L156.731 52.3959L156.991 54.0071L151.977 55.195L153.448 64.3253C153.8 66.5052 155.017 66.8398 156.325 66.5299C157.664 66.2127 158.596 64.9751 158.921 63.7829L159.963 65.6351C159.487 66.8958 158.172 68.1587 156.241 68.6162Z" fill="black"/>
<path d="M167.922 65.5384L165.862 66.0041L163.528 50.8223L165.588 50.3567L166.225 54.5C166.418 51.9692 167.751 49.5078 170.31 48.9293C172.058 48.5342 173.669 49.3483 173.99 51.4358C174.165 52.5744 174.03 53.5868 173.827 54.1563L171.611 54.6572C171.943 54.0911 172.167 53.0259 172.026 52.1087C171.876 51.1282 171.178 50.3696 169.804 50.6801C167.557 51.188 166.167 54.1205 166.57 56.7456L167.922 65.5384Z" fill="black"/>
<path d="M187.314 61.5817C183.183 62.4644 179.853 59.9762 179.154 55.1627C178.455 50.3493 180.883 46.6306 185.014 45.7479C189.144 44.8652 192.505 47.3468 193.205 52.1602C193.904 56.9737 191.445 60.699 187.314 61.5817ZM187.056 59.8083C190.029 59.173 191.724 56.6233 191.139 52.6016C190.551 48.5481 188.235 46.8227 185.262 47.458C182.32 48.0866 180.63 50.6679 181.219 54.7214C181.804 58.7431 184.115 60.4369 187.056 59.8083Z" fill="black"/>
<path d="M202.006 58.1848L199.935 58.6L197.86 43.3808L199.931 42.9656L200.51 47.2143C200.706 44.6342 202.147 42.1956 205.159 41.5916C208.139 40.994 210.389 42.3669 210.865 45.8547L212.265 56.1277L210.195 56.5429L208.859 46.7455C208.522 44.2724 207.185 42.9769 204.581 43.4991C201.412 44.1344 200.445 46.7387 200.804 49.3703L202.006 58.1848Z" fill="black"/>
<path d="M223.081 49.2552C221.917 49.4736 220.847 49.4144 219.909 49.1353C219.51 49.7952 219.14 50.6773 219.233 51.4073C219.342 52.2644 219.91 52.6778 221.546 52.3709L226.232 51.4915C228.874 50.9958 230.647 51.7681 230.931 53.9901C231.291 56.8152 228.657 59.3897 223.813 60.2986C219.976 61.0187 217.42 60.1658 217.153 58.0708C216.95 56.4836 218.334 55.2163 219.469 54.5159C218.394 54.425 217.798 53.7893 217.68 52.8688C217.522 51.6308 218.304 50.1841 219.436 48.964C217.868 48.2832 216.785 46.8613 216.538 44.925C216.133 41.7507 218.204 39.0543 221.695 38.3992C222.796 38.1927 223.799 38.2319 224.697 38.4534L225.454 34.5411L227.729 34.9592L225.442 38.7363C226.983 39.4547 227.999 40.8566 228.238 42.7294C228.643 45.9037 226.603 48.5942 223.081 49.2552ZM222.874 47.6363C225.138 47.2114 226.552 45.4185 226.256 43.1013C225.961 40.7841 224.166 39.5932 221.902 40.0181C219.669 40.4371 218.255 42.2301 218.551 44.5473C218.847 46.8645 220.641 48.0554 222.874 47.6363ZM223.603 58.648C227.251 57.9634 229.267 56.3499 229.044 54.6041C228.891 53.3978 227.973 53.0176 226.18 53.354L220.047 54.5049C219.353 55.1227 218.648 56.1649 218.774 57.1489C218.964 58.6409 220.741 59.1851 223.603 58.648Z" fill="black"/>
<path d="M251.695 44.1816C250.527 44.3769 249.457 44.2968 248.523 43.9995C248.114 44.6511 247.731 45.5251 247.814 46.2564C247.912 47.1149 248.475 47.5391 250.116 47.2645L254.819 46.4778C257.47 46.0342 259.234 46.8407 259.487 49.0663C259.809 51.8961 257.137 54.4167 252.277 55.2299C248.426 55.8741 245.879 54.9718 245.64 52.8734C245.46 51.2836 246.862 50.0445 248.008 49.3669C246.933 49.255 246.345 48.6082 246.24 47.6862C246.099 46.4462 246.901 45.016 248.052 43.8191C246.491 43.1082 245.427 41.6663 245.206 39.7268C244.845 36.5473 246.955 33.8938 250.458 33.3077C251.563 33.1229 252.567 33.1818 253.462 33.4207L254.274 29.5266L256.545 29.9889L254.204 33.7179C255.736 34.4659 256.734 35.8866 256.947 37.7625C257.309 40.942 255.23 43.5902 251.695 44.1816ZM251.511 42.56C253.783 42.1798 255.223 40.4162 254.959 38.0951C254.695 35.7741 252.915 34.5491 250.643 34.9292C248.402 35.3041 246.962 37.0678 247.226 39.3888C247.49 41.7099 249.27 42.9349 251.511 42.56ZM252.089 53.5766C255.75 52.9641 257.79 51.3915 257.591 49.6428C257.454 48.4346 256.54 48.0366 254.741 48.3376L248.586 49.3673C247.883 49.9709 247.164 50.9985 247.276 51.9841C247.446 53.4785 249.216 54.0571 252.089 53.5766Z" fill="black"/>
<path d="M266.416 46.5846L264.329 46.909L262.715 31.634L264.802 31.3097L265.243 35.4784C265.556 32.9715 267.01 30.6107 269.603 30.2077C271.374 29.9325 272.949 30.852 273.171 32.9523C273.292 34.0979 273.109 35.0969 272.878 35.6502L270.633 35.9992C270.994 35.458 271.269 34.4125 271.171 33.4896C271.067 32.5031 270.404 31.7005 269.012 31.9168C266.736 32.2706 265.202 35.0966 265.482 37.7379L266.416 46.5846Z" fill="black"/>
<path d="M282.873 44.4183C280.371 44.7783 278.812 43.6139 278.612 41.5756C278.416 39.5692 279.78 38.0811 281.809 36.8203L287.315 33.3476L287.302 33.2202C287.078 30.9272 285.87 29.7445 283.4 30.0999C281.119 30.428 279.6 31.9707 278.973 33.7726L277.373 32.5172C278.167 30.7881 280.207 28.6538 283.438 28.189C286.985 27.6786 289.025 29.4845 289.358 32.8922L290.059 40.058C290.137 40.8542 290.513 41.0907 291.242 40.9859L292.129 40.8583L292.312 42.7373L290.887 42.9424C289.367 43.1611 288.288 42.6381 288.098 40.6954L287.939 39.0712C287.647 41.3416 285.914 43.9808 282.873 44.4183ZM280.675 40.9882C280.799 42.2621 281.815 42.7942 283.304 42.5801C286.123 42.1745 287.998 39.6763 287.796 37.6061L287.531 34.8991L282.82 37.9667C281.248 38.968 280.563 39.8417 280.675 40.9882Z" fill="black"/>
<path d="M302.924 41.6454C299.815 42.0559 296.77 41.0389 295.581 38.1645L297.03 36.7799C297.692 38.7888 299.75 40.2585 302.827 39.8522C304.858 39.5841 306.116 38.5795 305.973 36.9859C305.829 35.3923 304.414 34.9987 302.309 34.793L300.204 34.5872C297.966 34.3344 295.622 33.6119 295.376 30.8709C295.138 28.2256 297.084 26.2917 300.224 25.877C303.46 25.4498 305.732 26.7946 306.688 28.8613L305.207 30.25C304.323 28.2705 302.634 27.3326 300.255 27.6467C298.415 27.8897 297.191 28.922 297.334 30.5156C297.477 32.1092 298.671 32.5321 300.94 32.7807L303.017 33.0225C306.261 33.4004 307.647 34.5396 307.841 36.7069C308.105 39.6391 305.747 41.2726 302.924 41.6454Z" fill="black"/>
<path d="M316.027 45.6501L313.93 45.901L312.201 24.6592L314.298 24.4083L314.625 28.427C314.939 25.9741 316.428 23.767 319.351 23.4172C323.323 22.9419 325.965 25.8462 326.357 30.6623C326.752 35.5103 324.625 38.953 320.654 39.4283C317.731 39.7781 315.915 37.9664 315.215 35.6671L316.027 45.6501ZM315.035 33.4664C315.243 36.0179 316.791 38.0871 319.873 37.7182C322.637 37.3874 324.579 35.2228 324.228 30.917C323.878 26.6113 321.625 24.9485 318.861 25.2793C315.779 25.6482 314.594 28.0443 314.802 30.5958L315.035 33.4664Z" fill="black"/>
<path d="M349.126 36.3321C344.922 36.7482 341.782 33.9094 341.455 29.0564C341.129 24.2033 343.848 20.7844 348.051 20.3682C352.255 19.9521 355.427 22.7878 355.754 27.6408C356.08 32.4938 353.329 35.9159 349.126 36.3321ZM349.006 34.5441C352.031 34.2446 353.925 31.9037 353.652 27.8489C353.377 23.7621 351.193 21.7928 348.167 22.0923C345.174 22.3887 343.282 24.7615 343.557 28.8483C343.83 32.9031 346.012 34.8405 349.006 34.5441Z" fill="black"/>
<path d="M365.044 34.527L362.972 34.709L362.153 21.0054L359.635 21.2266L359.538 19.5975L362.056 19.3763L361.949 17.5875C361.764 14.489 363.587 12.8197 366.201 12.5901C368.369 12.3997 369.904 13.4209 370.604 14.419L369.58 16.0502C368.874 14.9563 367.677 14.2266 366.274 14.3498C364.776 14.4814 363.901 15.3931 364.012 17.2458L364.128 19.1943L369.229 18.7463L369.326 20.3754L364.225 20.8234L365.044 34.527Z" fill="black"/>
<path d="M390.764 32.8568C388.434 33.0215 386.544 31.6798 386.41 28.899L385.939 19.0863L383.449 19.2623L383.371 17.6322L385.86 17.4562L385.754 15.2508L387.754 13.5379L387.935 17.3096L393.074 16.9463L393.153 18.5764L388.014 18.9397L388.457 28.177C388.563 30.3825 389.742 30.9086 391.082 30.8138C392.455 30.7168 393.525 29.647 393.983 28.5241L394.816 30.5179C394.199 31.6839 392.743 32.7169 390.764 32.8568Z" fill="black"/>
<path d="M402.657 31.7225L400.549 31.8474L399.686 10.4248L401.794 10.2998L402.212 20.6594C402.654 18.1333 404.39 15.9151 407.521 15.7296C410.491 15.5535 412.544 17.2267 412.686 20.7438L413.103 31.1034L410.995 31.2284L410.597 21.3484C410.496 18.8544 409.348 17.384 406.729 17.5393C403.439 17.7342 402.192 20.1798 402.299 22.8337L402.657 31.7225Z" fill="black"/>
<path d="M425.097 30.8435C420.814 31.0435 417.749 28.2719 417.587 23.1864C417.429 18.1969 420.178 15.0576 424.334 14.8635C428.521 14.6679 431.232 17.36 431.379 21.9977C431.391 22.3815 431.339 22.7683 431.315 23.0256L419.616 23.5721C419.866 27.4042 422.005 29.2262 425.041 29.0843C428.142 28.9395 429.431 27.1817 430.054 25.6471L431.381 27.0906C430.354 29.0284 428.358 30.6912 425.097 30.8435ZM424.388 16.5906C421.575 16.722 419.777 18.5677 419.599 22.0354L429.445 21.5755C429.143 18.1302 427.201 16.4592 424.388 16.5906Z" fill="black"/>
<path d="M450.66 29.5809L448.581 29.6401L448.316 15.9147L445.789 15.9866L445.757 14.3549L448.284 14.283L448.249 12.4913C448.189 9.38787 450.079 7.82951 452.702 7.75483C454.877 7.69289 456.371 8.80278 457.031 9.84037L455.941 11.408C455.279 10.2744 454.112 9.47533 452.704 9.51541C451.201 9.55821 450.289 10.4165 450.325 12.2721L450.363 14.2238L455.481 14.078L455.513 15.7097L450.395 15.8555L450.66 29.5809Z" fill="black"/>
<path d="M466.825 29.5391C462.601 29.6124 459.621 26.5278 459.563 21.6641C459.506 16.8004 462.412 13.6135 466.636 13.5402C470.859 13.4668 473.872 16.5509 473.929 21.4146C473.987 26.2783 471.048 29.4657 466.825 29.5391ZM466.803 27.7472C469.843 27.6944 471.865 25.515 471.817 21.4513C471.769 17.3556 469.696 15.2153 466.656 15.2681C463.649 15.3203 461.627 17.5317 461.675 21.6274C461.723 25.6911 463.796 27.7994 466.803 27.7472Z" fill="black"/>
<path d="M484.561 29.3512C481.553 29.3649 479.532 27.5821 479.521 24.0301L479.489 13.6941L481.569 13.6847L481.6 23.5726C481.607 26.0366 482.764 27.5673 485.388 27.5554C488.716 27.5402 489.989 25.1984 489.98 22.5104L489.953 13.6465L492.033 13.637L492.08 28.9969L490 29.0064L489.987 24.6224C489.451 27.1849 487.729 29.3367 484.561 29.3512Z" fill="black"/>
<path d="M499.875 29.0416L497.763 29.0248L497.847 13.665L499.959 13.6818L499.935 17.9698C500.493 15.4781 502.264 13.3802 505.336 13.4047C508.376 13.4289 510.414 15.2372 510.395 18.7571L510.339 29.125L508.227 29.1082L508.281 19.2203C508.294 16.7243 507.151 15.1792 504.495 15.158C501.263 15.1322 499.938 17.4898 499.924 20.1457L499.875 29.0416Z" fill="black"/>
<path d="M521.393 29.6892C517.394 29.6061 515.039 26.3885 515.108 21.525C515.176 16.6935 517.62 13.5757 521.62 13.6588C524.659 13.722 526.261 15.8677 526.706 18.3094L526.852 8.00641L528.931 8.04963L528.628 29.4875L526.549 29.4443L526.608 25.2527C526.094 27.6745 524.432 29.7524 521.393 29.6892ZM517.251 21.5695C517.19 25.8891 519.274 27.8848 522.058 27.9427C525.161 28.0072 526.601 25.7646 526.637 23.2049L526.678 20.3252C526.714 17.7654 525.338 15.4964 522.235 15.4319C519.451 15.3741 517.312 17.282 517.251 21.5695Z" fill="black"/>
<path d="M537.846 30.0981C535.319 30.0139 533.911 28.5903 533.957 26.5428C534.003 24.5273 535.535 23.2977 537.7 22.4094L543.581 19.948L543.584 19.82C543.636 17.5166 542.579 16.1367 540.084 16.0536C537.782 15.9769 536.089 17.2332 535.251 18.9021L533.813 17.3814C534.809 15.8138 537.089 14.0649 540.351 14.1736C543.933 14.2929 545.741 16.4342 545.663 19.8573L545.5 27.0554C545.482 27.8552 545.827 28.1549 546.563 28.1794L547.458 28.2092L547.416 30.0967L545.976 30.0488C544.441 29.9976 543.433 29.2917 543.477 27.3402L543.514 25.7086C542.953 27.899 540.916 30.2004 537.846 30.0981ZM536.075 26.3252C536.046 27.6049 536.99 28.3087 538.493 28.3588C541.34 28.4536 543.501 26.3165 543.548 24.237L543.609 21.5177L538.566 23.7189C536.886 24.4313 536.101 25.1735 536.075 26.3252Z" fill="black"/>
<path d="M557.157 30.8866C554.823 30.7829 553.045 29.2306 553.129 26.4479L553.426 16.6284L550.932 16.5176L550.982 14.8864L553.475 14.9971L553.542 12.7901L555.667 11.3152L555.553 15.0895L560.7 15.3181L560.651 16.9494L555.504 16.7207L555.225 25.9645C555.158 28.1715 556.29 28.8304 557.633 28.89C559.008 28.9511 560.157 28.0092 560.701 26.9445L561.374 29.0242C560.669 30.1139 559.139 30.9747 557.157 30.8866Z" fill="black"/>
<path d="M569.733 13.0319L567.624 12.9201L567.744 9.59427L569.853 9.70602L569.733 13.0319ZM569.081 31.1321L566.972 31.0204L567.525 15.6703L569.634 15.7821L569.081 31.1321Z" fill="black"/>
<path d="M582.968 32.2734C578.752 32.008 575.948 28.6898 576.156 23.8303C576.364 18.9707 579.436 16.0226 583.652 16.2881C587.868 16.5535 590.704 19.8737 590.496 24.7333C590.288 29.5928 587.183 32.5389 582.968 32.2734ZM583.044 30.4831C586.078 30.6741 588.214 28.6608 588.388 24.6005C588.563 20.5083 586.612 18.2056 583.578 18.0145C580.576 17.8255 578.439 19.8708 578.264 23.963C578.09 28.0233 580.042 30.294 583.044 30.4831Z" fill="black"/>
<path d="M597.885 32.9825L595.779 32.8228L596.569 17.4832L598.675 17.6428L598.455 21.9252C599.126 19.4736 600.989 17.4975 604.052 17.7297C607.084 17.9596 609.034 19.904 608.852 23.4194L608.319 33.7736L606.213 33.6139L606.722 23.7391C606.85 21.2464 605.781 19.6253 603.132 19.4245C599.909 19.1801 598.479 21.4458 598.343 24.0983L597.885 32.9825Z" fill="black"/>
<path d="M619.717 35.0918C616.593 34.8174 613.744 33.1543 612.999 30.0705L614.632 29.0258C614.986 31.1441 616.796 33.037 619.888 33.3086C621.928 33.4878 623.316 32.7749 623.412 31.1777C623.507 29.5806 622.171 28.8852 620.127 28.2241L618.084 27.5629C615.917 26.8267 613.714 25.6057 613.879 22.8586C614.037 20.2073 616.24 18.7311 619.396 19.0083C622.647 19.2939 624.686 21.1106 625.321 23.3499L623.657 24.3918C623.079 22.2539 621.554 20.964 619.163 20.754C617.315 20.5916 615.956 21.3392 615.861 22.9364C615.765 24.5335 616.879 25.2093 619.077 25.9483L621.087 26.6386C624.227 27.7172 625.424 29.1389 625.294 31.311C625.119 34.2498 622.554 35.341 619.717 35.0918Z" fill="black"/>
<path d="M647.069 37.8051C642.87 37.3532 640.171 33.9106 640.526 29.0595C640.881 24.2085 644.037 21.3958 648.237 21.8477C652.437 22.2997 655.167 25.7457 654.812 30.5967C654.457 35.4478 651.269 38.257 647.069 37.8051ZM647.2 36.0179C650.223 36.3431 652.415 34.4239 652.712 30.3708C653.011 26.2857 651.133 23.8964 648.111 23.5711C645.12 23.2493 642.925 25.2004 642.626 29.2855C642.33 33.3386 644.209 35.696 647.2 36.0179Z" fill="black"/>
<path d="M663.007 39.3056L660.941 39.0602L662.047 25.3768L659.536 25.0785L659.668 23.4518L662.178 23.7501L662.322 21.9639C662.572 18.87 664.6 17.5973 667.206 17.9069C669.367 18.1636 670.736 19.4855 671.286 20.6136L670.05 22.0125C669.507 20.7887 668.43 19.8235 667.032 19.6574C665.539 19.48 664.55 20.1998 664.401 22.0498L664.244 23.9954L669.328 24.5995L669.197 26.2262L664.112 25.6221L663.007 39.3056Z" fill="black"/>
<path d="M688.578 42.9561C686.263 42.6411 684.591 40.9295 684.848 38.1573L685.753 28.3751L683.279 28.0385L683.43 26.4135L685.903 26.75L686.106 24.5514L688.312 23.2705L687.964 27.0305L693.069 27.7251L692.919 29.3502L687.814 28.6555L686.962 37.8642C686.758 40.0628 687.844 40.8236 689.175 41.0048C690.539 41.1903 691.74 40.3535 692.348 39.3392L692.888 41.4777C692.119 42.5023 690.543 43.2236 688.578 42.9561Z" fill="black"/>
<path d="M700.456 44.2916L698.367 43.9832L700.508 22.6503L702.597 22.9588L701.562 33.2749C702.349 30.8709 704.365 29.0358 707.467 29.4938C710.411 29.9284 712.195 32.0011 711.843 35.5035L710.808 45.8197L708.719 45.5113L709.706 35.6727C709.955 33.1892 709.032 31.502 706.436 31.1188C703.176 30.6375 701.61 32.7973 701.344 35.4401L700.456 44.2916Z" fill="black"/>
<path d="M722.675 48.0418C718.441 47.3629 715.818 43.9968 716.37 38.9388C716.911 33.9762 720.049 31.4368 724.156 32.0955C728.295 32.7592 730.581 35.974 730.078 40.5867C730.037 40.9684 729.932 41.34 729.872 41.5895L718.308 39.7352C718.018 43.5728 719.864 45.8108 722.866 46.2921C725.931 46.7836 727.441 45.3103 728.268 43.9216L729.369 45.6194C728.09 47.324 725.898 48.5585 722.675 48.0418ZM723.969 33.8133C721.188 33.3675 719.165 34.8232 718.506 38.2133L728.238 39.7737C728.423 36.3077 726.749 34.2591 723.969 33.8133Z" fill="black"/>
<path d="M750.301 52.8299C746.365 52.1176 744.391 48.546 744.985 43.7184C745.575 38.9225 748.323 36.2056 752.259 36.9179C755.251 37.4592 756.599 39.846 756.774 42.3453L758.032 32.1184L760.079 32.4888L757.461 53.7683L755.414 53.3979L755.926 49.2373C755.157 51.5656 753.293 53.3712 750.301 52.8299ZM747.094 44.1001C746.567 48.3878 748.407 50.7013 751.146 51.197C754.201 51.7497 755.863 49.7454 756.176 47.2046L756.528 44.3462C756.84 41.8053 755.728 39.3314 752.674 38.7787C749.935 38.2829 747.618 39.8442 747.094 44.1001Z" fill="black"/>
<path d="M769.94 56.5073C765.731 55.6904 763.19 52.2364 763.856 47.1921C764.509 42.243 767.698 39.8035 771.782 40.5961C775.897 41.3947 778.105 44.6865 777.498 49.2866C777.447 49.6673 777.334 50.0358 777.269 50.2835L765.772 48.0521C765.395 51.8835 767.186 54.1833 770.17 54.7625C773.217 55.3538 774.759 53.9285 775.615 52.5654L776.675 54.3004C775.36 55.9648 773.144 57.1292 769.94 56.5073ZM771.556 42.3092C768.791 41.7727 766.739 43.164 766.004 46.5354L775.68 48.4132C775.943 44.9503 774.32 42.8457 771.556 42.3092Z" fill="black"/>
<path d="M787.282 60.0159C784.211 59.3821 781.523 57.3928 781.032 54.2264L782.732 53.3708C782.913 55.5276 784.554 57.6269 787.593 58.2542C789.599 58.6681 791.031 58.1158 791.253 56.5313C791.476 54.9469 790.208 54.0984 788.238 53.2026L786.267 52.3069C784.181 51.322 782.098 49.8487 782.48 47.1234C782.849 44.4932 785.149 43.2722 788.251 43.9124C791.448 44.5721 793.321 46.6216 793.771 48.9317L792.039 49.7808C791.639 47.5787 790.232 46.1145 787.881 45.6295C786.064 45.2544 784.659 45.8448 784.437 47.4293C784.214 49.0138 785.262 49.817 787.381 50.8085L789.315 51.7294C792.338 53.1684 793.409 54.7263 793.107 56.8812C792.698 59.7967 790.071 60.5915 787.282 60.0159Z" fill="black"/>
<path d="M802.492 44.4525L800.428 44.0071L800.911 40.7143L802.975 41.1597L802.492 44.4525ZM799.863 62.3727L797.799 61.9273L800.028 46.7299L802.093 47.1753L799.863 62.3727Z" fill="black"/>
<path d="M814.052 60.6908C812.897 60.4301 811.906 59.9446 811.1 59.3044C810.544 59.7681 809.955 60.4531 809.843 61.1806C809.712 62.0346 810.134 62.6534 811.757 63.0198L816.408 64.0698C819.03 64.6617 820.488 66.1035 820.148 68.3176C819.716 71.1326 816.533 72.5086 811.726 71.4235C807.918 70.5638 805.745 68.7314 806.065 66.6439C806.308 65.0624 807.957 64.4201 809.216 64.2134C808.229 63.6962 807.842 62.856 807.983 61.9388C808.172 60.7052 809.302 59.6514 810.702 58.9528C809.411 57.6797 808.78 55.9009 809.076 53.9715C809.562 50.8086 812.247 49.0914 815.712 49.8735C816.805 50.1202 817.738 50.56 818.523 51.1298L820.304 47.7356L822.331 49.0442L819.147 51.696C820.401 52.9936 820.974 54.7267 820.688 56.5928C820.203 59.7558 817.548 61.4801 814.052 60.6908ZM814.3 59.0777C816.547 59.5851 818.367 58.4579 818.721 56.1489C819.076 53.8399 817.712 51.994 815.465 51.4866C813.248 50.9863 811.428 52.1136 811.074 54.4225C810.72 56.7315 812.083 58.5774 814.3 59.0777ZM811.979 69.7787C815.6 70.5961 817.938 69.8804 818.205 68.1408C818.389 66.9388 817.629 66.2109 815.85 65.8092L809.763 64.4352C808.941 64.7405 807.994 65.4429 807.843 66.4234C807.615 67.91 809.138 69.1375 811.979 69.7787Z" fill="black"/>
<path d="M827.393 68.6454L825.339 68.155L827.8 52.9934L829.854 53.4839L829.167 57.7165C830.096 55.379 832.147 53.703 835.135 54.4163C838.091 55.1222 839.796 57.3666 839.232 60.8412L837.571 71.0752L835.517 70.5848L837.101 60.8245C837.501 58.3608 836.627 56.5771 834.043 55.9604C830.9 55.2099 829.244 57.2427 828.819 59.8644L827.393 68.6454Z" fill="black"/>
<path d="M854.609 81.52L852.565 80.989L856.272 60.0019L858.316 60.5329L857.615 64.5035C858.528 62.2688 860.489 60.702 863.338 61.4422C867.21 62.448 868.976 66.2027 868.136 70.961C867.289 75.7509 864.415 78.2671 860.544 77.2613C857.695 76.5211 856.435 74.1174 856.351 71.6567L854.609 81.52ZM856.735 69.4824C856.29 72.0034 857.232 74.5552 860.236 75.3357C862.931 76.0357 865.309 74.6761 866.06 70.4219C866.812 66.1678 865.102 63.746 862.407 63.046C859.403 62.2655 857.681 64.1253 857.236 66.6463L856.735 69.4824Z" fill="black"/>
<path d="M874.158 80.5761L872.121 80.0211L874.917 64.9178L876.955 65.4728L876.192 69.5947C877.19 67.3547 879.211 65.7237 881.743 66.4131C883.472 66.884 884.683 68.4035 884.298 70.4802C884.088 71.613 883.636 72.4813 883.264 72.909L881.072 72.312C881.561 71.9494 882.112 71.0748 882.281 70.1624C882.462 69.1869 882.069 68.1546 880.711 67.7846C878.488 67.1792 876.262 69.2171 875.778 71.8287L874.158 80.5761Z" fill="black"/>
<path d="M893.231 86.2387C889.169 85.0812 886.934 81.1958 887.859 76.4206C888.784 71.6453 892.212 69.3733 896.274 70.5307C900.336 71.6881 902.602 75.5823 901.677 80.3576C900.752 85.1328 897.293 87.3961 893.231 86.2387ZM893.572 84.4794C896.495 85.3124 898.873 83.7687 899.646 79.7788C900.425 75.7576 898.869 73.0601 895.945 72.2271C893.052 71.4029 890.669 72.978 889.89 76.9993C889.117 80.9891 890.679 83.6551 893.572 84.4794Z" fill="black"/>
<path d="M911.763 91.6829C907.623 90.4474 905.492 86.6849 906.485 81.7926C907.478 76.9004 910.805 74.767 914.975 76.0117C918.624 77.1008 920.479 79.9824 920.444 83.1983L918.34 83.4685C918.549 80.8367 917.453 78.5471 914.632 77.7051C911.719 76.8357 909.354 78.3917 908.54 82.4058C907.731 86.3886 909.23 89.0977 912.143 89.9672C914.964 90.8092 916.805 89.4296 917.628 86.9809L919.387 88.4042C918.188 91.2723 915.442 92.7811 911.763 91.6829Z" fill="black"/>
<path d="M929.477 97.1313C925.383 95.8549 923.146 92.1204 924.201 87.143C925.236 82.2596 928.579 80.1647 932.55 81.4029C936.552 82.6507 938.474 86.1865 937.511 90.7256C937.432 91.1013 937.291 91.4579 937.207 91.6988L926.026 88.2127C925.352 92.0073 926.94 94.5047 929.842 95.4095C932.805 96.3335 934.44 95.0744 935.393 93.8031L936.303 95.6554C934.873 97.1785 932.593 98.1028 929.477 97.1313ZM932.192 83.0933C929.504 82.2551 927.367 83.4244 926.375 86.7196L935.784 89.6533C936.318 86.2153 934.88 83.9315 932.192 83.0933Z" fill="black"/>
<path d="M946.475 102.584C943.492 101.616 940.995 99.3325 940.761 96.1087L942.508 95.4366C942.516 97.6159 943.97 99.896 946.922 100.854C948.87 101.487 950.328 101.089 950.673 99.5266C951.017 97.9642 949.833 96.9769 947.958 95.8661L946.083 94.7552C944.1 93.5424 942.159 91.841 942.753 89.1537C943.325 86.5601 945.692 85.5872 948.706 86.5652C951.81 87.5728 953.498 89.8284 953.759 92.1903L951.982 92.8526C951.761 90.6041 950.487 88.9852 948.205 88.2443C946.439 87.6714 945.005 88.11 944.66 89.6724C944.316 91.2348 945.287 92.1529 947.3 93.3757L949.138 94.5079C952.009 96.277 952.944 97.9533 952.475 100.078C951.841 102.953 949.184 103.464 946.475 102.584Z" fill="black"/>
<path d="M962.355 107.881C959.383 106.88 956.908 104.568 956.7 101.34L958.45 100.686C958.44 102.867 959.874 105.164 962.816 106.155C964.757 106.808 966.216 106.426 966.573 104.867C966.931 103.307 965.755 102.306 963.891 101.175L962.027 100.043C960.056 98.8078 958.131 97.0845 958.746 94.4019C959.338 91.8129 961.711 90.865 964.714 91.8762C967.807 92.918 969.475 95.1932 969.717 97.5594L967.936 98.2028C967.733 95.9506 966.474 94.317 964.2 93.551C962.441 92.9585 961.004 93.382 960.647 94.9416C960.29 96.5012 961.253 97.4304 963.255 98.6756L965.081 99.8284C967.935 101.63 968.855 103.317 968.37 105.438C967.713 108.308 965.054 108.79 962.355 107.881Z" fill="black"/>
<path d="M971.847 113.672L971.658 112.393C972.534 112.562 972.971 112.511 973.162 111.701L973.257 111.296L972.138 110.909L973.004 107.234L975.393 108.061L974.498 111.861C974.138 113.387 973.471 113.998 971.847 113.672Z" fill="black"/>
<path d="M66.159 149.619L64.1576 150.294L58.9566 129.494L60.958 128.819L63.4731 138.878C63.3831 136.283 64.5993 133.651 67.571 132.65C70.3912 131.699 72.706 132.804 73.5599 136.219L76.075 146.277L74.0736 146.952L71.6749 137.359C71.0694 134.938 69.6658 133.795 67.1792 134.633C64.0558 135.686 63.3567 138.412 64.001 140.989L66.159 149.619Z" fill="black"/>
<path d="M88.2789 142.631C84.2572 143.922 80.7274 141.772 79.6001 137.04C78.4727 132.308 80.5489 128.358 84.5706 127.066C88.5924 125.775 92.1527 127.915 93.28 132.647C94.4073 137.379 92.3007 141.339 88.2789 142.631ZM87.8636 140.887C90.758 139.958 92.211 137.246 91.2691 133.293C90.3198 129.308 87.8656 127.818 84.9711 128.747C82.1072 129.667 80.6616 132.41 81.6109 136.394C82.5528 140.348 84.9997 141.807 87.8636 140.887Z" fill="black"/>
<path d="M106.433 136.581L103.83 137.37L96.4498 123.599L98.6855 122.921L103.378 132.304L104.803 135.441L104.94 131.831L105.791 120.769L108.271 120.018L113.669 129.187L115.307 132.259L115.23 128.714L115.346 117.875L117.612 117.189L116.968 133.39L114.365 134.179L108.996 125.134L107.432 122.106L107.311 125.644L106.433 136.581Z" fill="black"/>
<path d="M131.866 129.394C127.743 130.57 124.278 128.537 123.225 123.56C122.192 118.676 124.308 114.952 128.308 113.811C132.34 112.662 135.446 114.697 136.406 119.237C136.486 119.612 136.504 120.006 136.526 120.265L125.263 123.476C126.181 127.198 128.578 128.506 131.502 127.673C134.487 126.821 135.428 124.794 135.763 123.138L137.306 124.258C136.65 126.404 135.005 128.499 131.866 129.394ZM128.666 115.502C125.958 116.274 124.537 118.505 124.976 121.965L134.454 119.262C133.554 115.934 131.374 114.73 128.666 115.502Z" fill="black"/>
<path d="M150.286 123.948L147.753 124.633L139.139 111.087L141.363 110.485L146.414 118.777L148.766 122.705L149.318 117.991L150.691 107.96L152.853 107.375L150.286 123.948Z" fill="black"/>
<path d="M167.082 119.859C162.928 120.923 159.501 118.801 158.551 113.802C157.619 108.898 159.816 105.236 163.846 104.204C167.907 103.164 170.975 105.279 171.841 109.837C171.913 110.215 171.922 110.608 171.939 110.867L160.594 113.774C161.435 117.514 163.808 118.884 166.753 118.13C169.76 117.36 170.745 115.36 171.115 113.716L172.636 114.876C171.935 117 170.243 119.049 167.082 119.859ZM164.169 105.902C161.441 106.6 159.971 108.79 160.338 112.257L169.885 109.811C169.054 106.463 166.897 105.203 164.169 105.902Z" fill="black"/>
<path d="M181.349 115.954L179.296 116.451L176.58 101.333L178.633 100.836L179.374 104.962C179.504 102.433 180.779 99.9547 183.329 99.3371C185.071 98.9153 186.705 99.7028 187.079 101.781C187.282 102.915 187.172 103.928 186.983 104.5L184.775 105.034C185.094 104.464 185.292 103.397 185.128 102.484C184.952 101.508 184.234 100.761 182.866 101.093C180.626 101.635 179.306 104.584 179.776 107.198L181.349 115.954Z" fill="black"/>
<path d="M211.259 109.365C208.978 109.869 206.959 108.809 206.509 106.062L204.921 96.367L202.484 96.905L202.22 95.2945L204.657 94.7565L204.301 92.5775L206.078 90.5818L206.688 94.3081L211.719 93.1977L211.983 94.8082L206.952 95.9187L208.447 105.045C208.804 107.224 210.027 107.576 211.339 107.286C212.683 106.99 213.616 105.769 213.94 104.585L214.99 106.448C214.515 107.698 213.196 108.938 211.259 109.365Z" fill="black"/>
<path d="M223.59 106.342L221.522 106.771L218.264 85.5797L220.332 85.1512L221.907 95.3988C222.061 92.8214 223.526 90.3639 226.597 89.7276C229.511 89.1238 231.726 90.4924 232.261 93.9715L233.836 104.219L231.768 104.648L230.266 94.8745C229.886 92.4075 228.588 91.11 226.018 91.6424C222.791 92.3112 221.835 94.9244 222.238 97.5496L223.59 106.342Z" fill="black"/>
<path d="M246.537 102.056C242.326 102.866 238.992 100.545 238.273 95.5083C237.568 90.5664 239.94 87.0505 244.025 86.2645C248.141 85.4726 251.116 87.7646 251.771 92.358C251.826 92.7381 251.817 93.1304 251.822 93.3899L240.321 95.6026C240.989 99.3799 243.303 100.888 246.288 100.313C249.336 99.7269 250.416 97.794 250.864 96.1781L252.333 97.4252C251.532 99.4998 249.742 101.439 246.537 102.056ZM244.269 87.9752C241.504 88.5072 239.93 90.6002 240.135 94.0759L249.814 92.2139C249.137 88.8288 247.034 87.4432 244.269 87.9752Z" fill="black"/>
<path d="M264.707 98.6942C261.62 99.2447 258.537 98.3656 257.229 95.5465L258.617 94.0975C259.363 96.0753 261.48 97.4513 264.535 96.9064C266.552 96.5469 267.766 95.4862 267.556 93.9C267.346 92.3138 265.916 91.9843 263.805 91.8736L261.694 91.7629C259.449 91.6112 257.078 90.9948 256.717 88.2666C256.369 85.6335 258.23 83.6132 261.349 83.0571C264.562 82.4841 266.887 83.7257 267.928 85.7481L266.509 87.2027C265.543 85.2642 263.816 84.403 261.454 84.8243C259.627 85.1501 258.448 86.237 258.658 87.8232C258.868 89.4093 260.078 89.7781 262.354 89.9242L264.437 90.0723C267.693 90.3037 269.125 91.3797 269.41 93.5369C269.796 96.4554 267.511 98.1943 264.707 98.6942Z" fill="black"/>
<path d="M282.276 95.6921C278.045 96.3872 274.756 93.9789 274.141 88.9283C273.537 83.973 275.983 80.5254 280.088 79.8511C284.225 79.1716 287.155 81.5415 287.716 86.1475C287.762 86.5286 287.746 86.9202 287.745 87.1795L276.188 89.078C276.779 92.869 279.064 94.4378 282.063 93.945C285.126 93.4418 286.247 91.5404 286.729 89.9386L288.174 91.224C287.328 93.2745 285.497 95.163 282.276 95.6921ZM280.297 81.5664C277.518 82.0229 275.9 84.0708 276.034 87.5481L285.759 85.9504C285.152 82.551 283.076 81.1099 280.297 81.5664Z" fill="black"/>
<path d="M308.762 91.6226C306.259 91.9763 304.69 90.8093 304.476 88.7725C304.266 86.7675 305.622 85.284 307.645 84.0293L313.135 80.5728L313.121 80.4455C312.881 78.1541 311.664 76.9696 309.192 77.3189C306.911 77.6413 305.4 79.179 304.785 80.9777L303.174 79.7196C303.957 77.994 305.985 75.8666 309.217 75.4098C312.766 74.9083 314.82 76.7173 315.177 80.1226L315.928 87.2834C316.012 88.079 316.39 88.3162 317.119 88.2132L318.006 88.0878L318.203 89.9656L316.777 90.167C315.256 90.382 314.172 89.8569 313.969 87.9156L313.799 86.2925C313.522 88.5601 311.804 91.1928 308.762 91.6226ZM306.538 88.1905C306.671 89.4636 307.692 89.9976 309.181 89.7871C312.001 89.3886 313.862 86.8971 313.645 84.8285L313.361 82.1233L308.665 85.1769C307.098 86.1736 306.418 87.0448 306.538 88.1905Z" fill="black"/>
<path d="M325.797 88.9737L323.702 89.242L322.249 73.9508L324.344 73.6826L324.741 77.8558C325.082 75.3615 326.564 73.0435 329.167 72.7102C330.945 72.4826 332.514 73.4425 332.714 75.545C332.822 76.6918 332.628 77.6841 332.39 78.2304L330.137 78.519C330.504 77.9883 330.791 76.952 330.703 76.0281C330.609 75.0406 329.953 74.2218 328.557 74.4006C326.271 74.6933 324.704 77.4735 324.956 80.1176L325.797 88.9737Z" fill="black"/>
<path d="M346.381 86.7881C342.121 87.2759 338.917 84.7129 338.487 79.6431C338.064 74.669 340.639 71.3478 344.772 70.8746C348.937 70.3977 351.782 72.9051 352.175 77.5285C352.207 77.9111 352.176 78.301 352.166 78.5597L340.53 79.8921C340.983 83.7037 343.212 85.3802 346.232 85.0344C349.316 84.6813 350.507 82.8385 351.048 81.2634L352.447 82.6164C351.526 84.6214 349.624 86.4167 346.381 86.7881ZM344.918 72.5964C342.121 72.9168 340.426 74.8816 340.432 78.3579L350.224 77.2367C349.741 73.815 347.716 72.2761 344.918 72.5964Z" fill="black"/>
<path d="M374.994 83.8751C372.668 84.0908 370.751 82.7908 370.56 80.0133L369.885 70.2125L367.4 70.443L367.288 68.8149L369.773 68.5843L369.622 66.3816L371.585 64.6252L371.844 68.3923L376.974 67.9165L377.086 69.5446L371.956 70.0204L372.591 79.2466C372.743 81.4494 373.932 81.9496 375.27 81.8254C376.64 81.6984 377.687 80.6053 378.122 79.4726L378.996 81.4478C378.403 82.6272 376.97 83.6919 374.994 83.8751Z" fill="black"/>
<path d="M387.522 82.4275L385.417 82.5951L384.153 61.1924L386.259 61.0248L386.87 71.3748C387.265 68.8399 388.959 66.5869 392.085 66.3381C395.051 66.102 397.135 67.7334 397.342 71.2473L397.953 81.5973L395.848 81.7648L395.265 71.894C395.118 69.4024 393.943 67.9554 391.327 68.1636C388.042 68.4251 386.841 70.8956 386.998 73.547L387.522 82.4275Z" fill="black"/>
<path d="M410.748 81.0502C406.469 81.3289 403.359 78.6138 403.113 73.5317C402.872 68.5456 405.569 65.3559 409.72 65.0855C413.903 64.813 416.658 67.4551 416.882 72.0897C416.9 72.4732 416.855 72.8609 416.835 73.1187L405.148 73.8801C405.461 77.7073 407.629 79.4899 410.663 79.2922C413.76 79.0904 415.02 77.309 415.618 75.7631L416.968 77.1821C415.973 79.1387 414.005 80.838 410.748 81.0502ZM409.803 66.8115C406.993 66.9945 405.226 68.8731 405.106 72.3438L414.941 71.7031C414.582 68.2636 412.613 66.6284 409.803 66.8115Z" fill="black"/>
<path d="M439.439 79.5492C437.105 79.6508 435.235 78.2589 435.145 75.4763L434.828 65.6574L432.335 65.7659L432.282 64.1348L434.776 64.0263L434.704 61.8194L436.732 60.1618L436.854 63.9358L442.001 63.7119L442.053 65.343L436.906 65.567L437.205 74.8102C437.276 77.017 438.446 77.5746 439.789 77.5162C441.164 77.4564 442.251 76.4162 442.727 75.3065L443.529 77.3214C442.893 78.4701 441.421 79.463 439.439 79.5492Z" fill="black"/>
<path d="M452.006 78.7211L449.895 78.7853L449.412 57.3508L451.523 57.2866L451.756 67.6519C452.244 65.14 454.019 62.9731 457.154 62.8778C460.129 62.7873 462.152 64.5185 462.232 68.0376L462.465 78.4029L460.354 78.4672L460.131 68.5817C460.075 66.0863 458.953 64.5838 456.33 64.6636C453.036 64.7638 451.746 67.1721 451.806 69.8274L452.006 78.7211Z" fill="black"/>
<path d="M470.685 60.1298L468.573 60.1706L468.526 56.8429L470.637 56.8022L470.685 60.1298ZM470.944 78.24L468.832 78.2807L468.613 62.9223L470.724 62.8815L470.944 78.24Z" fill="black"/>
<path d="M481.271 78.0882L479.159 78.1054L479.066 62.7457L481.178 62.7284L481.204 67.0164C481.733 64.516 483.48 62.3896 486.552 62.3645C489.592 62.3396 491.65 64.1149 491.672 67.6348L491.735 78.0026L489.623 78.0199L489.563 68.1321C489.548 65.6361 488.386 64.1095 485.73 64.1313C482.498 64.1577 481.201 66.5364 481.217 69.1923L481.271 78.0882Z" fill="black"/>
<path d="M504.072 73.3146C502.888 73.3073 501.833 73.0447 500.939 72.5912C500.457 73.1642 499.973 73.9612 499.97 74.6972C499.966 75.5612 500.475 76.0763 502.139 76.0867L506.907 76.1163C509.595 76.133 511.254 77.2313 511.244 79.4713C511.231 82.3193 508.277 84.349 503.349 84.3184C499.446 84.2941 497.02 82.967 497.029 80.855C497.037 79.255 498.577 78.2726 499.795 77.8002C498.741 77.5056 498.232 76.7664 498.236 75.8384C498.242 74.5904 499.208 73.3164 500.493 72.3324C499.025 71.3632 498.137 69.7577 498.146 67.8057C498.16 64.6058 500.571 62.3487 504.123 62.3708C505.243 62.3777 506.234 62.6079 507.096 62.9972L508.361 59.293L510.565 60.1387L507.798 63.4176C509.233 64.4186 510.058 65.9917 510.049 67.8797C510.035 71.0797 507.656 73.3369 504.072 73.3146ZM504.08 71.6827C506.384 71.697 508.023 70.2031 508.033 67.8672C508.044 65.5312 506.419 64.0171 504.115 64.0027C501.843 63.9886 500.204 65.4825 500.193 67.8184C500.183 70.1544 501.808 71.6685 504.08 71.6827ZM503.357 82.6544C507.069 82.6774 509.283 81.4752 509.291 79.7152C509.296 78.4992 508.435 77.9498 506.611 77.9385L500.371 77.8997C499.601 78.375 498.765 79.2658 498.76 80.2578C498.753 81.7617 500.445 82.6363 503.357 82.6544Z" fill="black"/>
<path d="M522.918 78.6359C519.783 78.5733 516.86 77.1068 515.977 74.0806L517.562 72.928C518.011 75.0173 519.905 76.7835 523.009 76.8454C525.056 76.8862 526.412 76.0811 526.436 74.4813C526.46 72.8815 525.092 72.2781 523.02 71.7567L520.947 71.2352C518.748 70.6472 516.491 69.578 516.532 66.8263C516.572 64.1706 518.708 62.5489 521.875 62.6121C525.138 62.6772 527.258 64.3518 527.993 66.5429L526.376 67.6949C525.703 65.601 524.121 64.4172 521.721 64.3694C519.865 64.3324 518.541 65.1701 518.517 66.7699C518.494 68.3697 519.637 68.9687 521.868 69.5573L523.908 70.1101C527.096 70.9738 528.356 72.3112 528.324 74.487C528.28 77.4306 525.765 78.6927 522.918 78.6359Z" fill="black"/>
<path d="M547.869 79.0855L545.759 79.0027L546.383 57.5718L548.493 57.6546L547.869 79.0855Z" fill="black"/>
<path d="M556.873 64.9696L556.433 63.7957C557.333 63.71 557.755 63.5377 557.784 62.7062L557.799 62.2904L556.616 62.2347L556.748 58.461L559.273 58.58L559.137 62.4816C559.082 64.0487 558.543 64.8241 556.873 64.9696Z" fill="black"/>
<path d="M568.187 80.0479L566.079 79.9196L566.772 64.5752L568.88 64.7036L568.686 68.9872C569.343 66.4948 571.13 64.52 573.973 64.6931C576.752 64.8623 578.31 66.5279 578.33 69.6384C578.955 67.1441 580.808 65.1093 583.683 65.2843C586.621 65.4632 588.203 67.3225 588.044 70.8389L587.575 81.2283L585.467 81.1L585.914 71.1901C586.036 68.5048 584.913 67.1222 582.549 66.9783C579.802 66.8111 578.386 69.0969 578.266 71.7502L577.865 80.6372L575.789 80.5108L576.236 70.6009C576.358 67.9156 575.235 66.533 572.839 66.3871C570.124 66.2218 568.708 68.5077 568.588 71.161L568.187 80.0479Z" fill="black"/>
<path d="M605.995 82.7252L603.891 82.5446L604.867 67.2156L606.971 67.3962L606.705 71.5798C607.433 69.2019 609.257 67.2393 611.872 67.4637C613.657 67.6169 615.05 68.8925 614.916 71.0002C614.843 72.1499 614.495 73.0833 614.175 73.5697L611.912 73.3754C612.357 72.9319 612.802 71.9747 612.861 71.0486C612.924 70.0586 612.407 69.1152 611.005 68.9948C608.709 68.7977 606.729 71.1965 606.56 73.8472L605.995 82.7252Z" fill="black"/>
<path d="M626.573 84.9563C622.306 84.5324 619.559 81.3341 619.933 76.2599C620.3 71.2814 623.355 68.5631 627.494 68.9743C631.666 69.3886 634.07 72.4564 633.729 77.0838C633.701 77.4668 633.609 77.8434 633.558 78.0956L621.904 76.9379C621.749 80.7802 623.677 82.9006 626.703 83.201C629.791 83.5079 631.253 81.9493 632.033 80.5158L633.196 82.1422C631.974 83.9176 629.821 85.2789 626.573 84.9563ZM627.367 70.6976C624.565 70.4192 622.589 71.991 622.048 75.4092L631.856 76.3834C631.919 72.9178 630.17 70.9759 627.367 70.6976Z" fill="black"/>
<path d="M642.022 86.6066C639.51 86.3214 638.194 84.7879 638.366 82.7471C638.535 80.7382 640.137 79.6324 642.348 78.9176L648.358 76.9278L648.369 76.8003C648.562 74.5044 647.594 73.0424 645.114 72.7609C642.824 72.501 641.061 73.6207 640.124 75.2205L638.784 73.5877C639.873 72.1016 642.251 70.5367 645.495 70.9048C649.056 71.3091 650.725 73.5911 650.438 77.003L649.834 84.1776C649.767 84.9748 650.092 85.3015 650.823 85.3845L651.714 85.4855L651.555 87.3669L650.125 87.2044C648.598 87.0312 647.637 86.2461 647.801 84.301L647.938 82.6747C647.244 84.8172 645.074 86.9531 642.022 86.6066ZM640.489 82.6983C640.381 83.9738 641.279 84.7517 642.773 84.9214C645.603 85.2426 647.887 83.2806 648.062 81.2079L648.29 78.4975L643.131 80.2941C641.413 80.8717 640.586 81.5504 640.489 82.6983Z" fill="black"/>
<path d="M660.001 88.7584C657.493 88.4389 656.194 86.887 656.387 84.8481C656.576 82.8411 658.189 81.7568 660.406 81.072L666.433 79.1638L666.445 79.0364C666.662 76.7426 665.709 75.2671 663.233 74.9516C660.948 74.6605 659.174 75.7564 658.22 77.3437L656.899 75.6923C658.002 74.2207 660.395 72.6878 663.633 73.1003C667.188 73.5533 668.834 75.8586 668.511 79.2674L667.834 86.4354C667.759 87.2319 668.081 87.5631 668.811 87.6561L669.7 87.7693L669.522 89.649L668.094 89.467C666.57 89.2729 665.617 88.4744 665.801 86.5311L665.955 84.9063C665.239 87.0398 663.048 89.1466 660.001 88.7584ZM658.509 84.8283C658.388 86.1026 659.277 86.893 660.769 87.083C663.595 87.4429 665.897 85.5116 666.093 83.4409L666.349 80.7329L661.174 82.4596C659.451 83.0139 658.617 83.6814 658.509 84.8283Z" fill="black"/>
<path d="M677.953 91.1579C675.45 90.8042 674.168 89.2342 674.382 87.1974C674.592 85.1923 676.214 84.1298 678.437 83.475L684.481 81.6484L684.494 81.5211C684.735 79.2297 683.798 77.7408 681.326 77.3915C679.045 77.0691 677.26 78.1411 676.291 79.7159L674.987 78.046C676.105 76.589 678.513 75.0884 681.745 75.5451C685.294 76.0466 686.914 78.375 686.557 81.7803L685.807 88.9411C685.723 89.7367 686.042 90.0724 686.77 90.1754L687.658 90.3008L687.461 92.1785L686.035 91.977C684.514 91.762 683.57 90.9504 683.774 89.0091L683.944 87.386C683.207 89.5103 680.995 91.5878 677.953 91.1579ZM676.503 87.2065C676.369 88.4795 677.25 89.2821 678.739 89.4926C681.559 89.8911 683.88 87.9907 684.097 85.922L684.381 83.2168L679.191 84.8734C677.463 85.4044 676.623 86.0607 676.503 87.2065Z" fill="black"/>
<path d="M695.034 93.3493L692.946 93.0313L695.353 71.7269L697.441 72.0448L695.034 93.3493Z" fill="black"/>
<path d="M705.269 94.9658L703.184 94.6316L705.716 73.3416L707.801 73.6758L705.269 94.9658Z" fill="black"/>
<path d="M715.495 96.6631L713.412 96.3126L716.068 75.0378L718.151 75.3883L715.495 96.6631Z" fill="black"/>
<path d="M724.614 103.734C722.567 103.367 721.35 101.85 720.935 100.606L722.303 99.2927C722.768 100.643 723.505 101.652 724.891 101.9C726.119 102.12 727.089 101.612 728 99.8596L728.769 98.4386L727.6 98.2614L724.014 82.549L726.219 82.9444L728.642 94.0638L729.295 97.3962L730.815 94.4535L735.983 84.6952L738.157 85.0849L729.497 100.972C728.29 103.257 726.662 104.101 724.614 103.734Z" fill="black"/>
<path d="M742.408 107.026C740.366 106.631 739.165 105.097 738.763 103.847L740.144 102.552C740.595 103.908 741.321 104.928 742.703 105.195C743.928 105.432 744.904 104.937 745.831 103.196L746.615 101.785L745.448 101.592L742.028 85.8247L744.227 86.25L746.533 97.4065L747.151 100.749L748.701 97.8258L753.966 88.1337L756.134 88.5529L747.316 104.329C746.086 106.598 744.45 107.421 742.408 107.026Z" fill="black"/>
<path d="M760.168 110.564C758.132 110.141 756.948 108.59 756.559 107.334L757.952 106.057C758.389 107.42 759.103 108.45 760.482 108.736C761.704 108.989 762.683 108.507 763.629 106.778L764.427 105.377L763.262 105.168L760.008 89.3482L762.201 89.8034L764.39 100.996L764.973 104.348L766.552 101.444L771.914 91.8193L774.076 92.2679L765.1 107.932C763.848 110.185 762.205 110.986 760.168 110.564Z" fill="black"/>
<path d="M777.89 114.346C775.859 113.895 774.692 112.327 774.317 111.066L775.722 109.807C776.144 111.177 776.848 112.216 778.222 112.521C779.441 112.791 780.424 112.322 781.387 110.605L782.199 109.214L781.038 108.989L777.95 93.1187L780.136 93.6036L782.207 104.83L782.755 108.192L784.363 105.308L789.821 95.7512L791.977 96.2292L782.845 111.779C781.57 114.016 779.92 114.796 777.89 114.346Z" fill="black"/>
<path d="M812.412 112.011C811.262 111.729 810.282 111.226 809.492 110.572C808.923 111.024 808.313 111.697 808.182 112.421C808.027 113.271 808.433 113.897 810.049 114.293L814.679 115.429C817.29 116.069 818.711 117.535 818.31 119.739C817.801 122.541 814.575 123.855 809.789 122.681C805.997 121.752 803.87 119.881 804.248 117.804C804.534 116.229 806.204 115.619 807.471 115.437C806.496 114.902 806.131 114.056 806.297 113.143C806.52 111.915 807.682 110.884 809.103 110.213C807.845 108.918 807.261 107.13 807.611 105.21C808.183 102.062 810.921 100.398 814.371 101.244C815.459 101.511 816.382 101.967 817.152 102.551L819.029 99.1961L821.024 100.541L817.762 103.128C818.983 104.447 819.51 106.188 819.172 108.045C818.599 111.193 815.893 112.865 812.412 112.011ZM812.704 110.406C814.942 110.954 816.796 109.863 817.214 107.565C817.632 105.267 816.316 103.398 814.079 102.85C811.872 102.308 810.018 103.399 809.6 105.698C809.181 107.996 810.497 109.864 812.704 110.406ZM810.086 121.044C813.692 121.928 816.054 121.258 816.369 119.526C816.586 118.33 815.845 117.589 814.073 117.154L808.013 115.668C807.181 115.958 806.213 116.641 806.035 117.617C805.766 119.097 807.258 120.351 810.086 121.044Z" fill="black"/>
<path d="M830.18 121.74C826.093 120.674 823.839 116.853 824.763 112.077C825.686 107.302 829.13 104.965 833.218 106.031C837.305 107.096 839.59 110.926 838.666 115.701C837.743 120.477 834.267 122.805 830.18 121.74ZM830.52 119.98C833.462 120.747 835.851 119.159 836.622 115.168C837.4 111.147 835.831 108.494 832.89 107.727C829.979 106.969 827.584 108.588 826.806 112.61C826.035 116.6 827.609 119.222 830.52 119.98Z" fill="black"/>
<path d="M849.451 126.946C845.379 125.82 843.172 121.964 844.149 117.199C845.127 112.434 848.595 110.147 852.666 111.272C856.737 112.398 858.975 116.263 857.998 121.028C857.02 125.793 853.522 128.072 849.451 126.946ZM849.811 125.19C852.741 126.001 855.146 124.446 855.962 120.465C856.785 116.453 855.249 113.775 852.319 112.965C849.419 112.163 847.008 113.749 846.185 117.762C845.368 121.743 846.911 124.389 849.811 125.19Z" fill="black"/>
<path d="M868.039 132.295C864.2 131.172 862.568 127.402 863.599 122.649C864.624 117.927 867.599 115.505 871.438 116.627C874.356 117.481 875.475 120.003 875.42 122.514L877.605 112.444L879.601 113.028L875.055 133.981L873.059 133.397L873.947 129.3C872.971 131.542 870.957 133.148 868.039 132.295ZM865.657 123.251C864.741 127.473 866.354 129.973 869.027 130.754C872.006 131.626 873.839 129.8 874.382 127.299L874.992 124.484C875.535 121.982 874.659 119.398 871.68 118.527C869.007 117.745 866.566 119.06 865.657 123.251Z" fill="black"/>
<path d="M895.612 140.679C893.202 139.915 892.145 138.14 892.613 136.147C893.075 134.184 894.801 133.393 897.065 133.106L903.225 132.28L903.254 132.155C903.781 129.912 903.052 128.275 900.673 127.521C898.476 126.825 896.59 127.6 895.439 129.009L894.373 127.131C895.654 125.864 898.207 124.765 901.318 125.751C904.735 126.834 906.028 129.419 905.244 132.752L903.596 139.761C903.413 140.54 903.683 140.927 904.384 141.149L905.239 141.42L904.806 143.258L903.434 142.823C901.969 142.359 901.147 141.395 901.594 139.495L901.967 137.906C900.974 139.901 898.541 141.607 895.612 140.679ZM894.693 136.504C894.4 137.75 895.161 138.695 896.595 139.149C899.31 140.009 901.828 138.498 902.304 136.473L902.927 133.825L897.626 134.623C895.864 134.867 894.956 135.383 894.693 136.504Z" fill="black"/>
<path d="M914.921 146.986C912.703 146.253 911.322 144.25 911.985 141.546L914.326 132.005L911.956 131.222L912.345 129.637L914.715 130.42L915.241 128.276L917.589 127.406L916.69 131.073L921.581 132.691L921.192 134.276L916.301 132.658L914.097 141.64C913.571 143.784 914.52 144.737 915.796 145.159C917.103 145.591 918.402 144.979 919.148 144.083L919.359 146.303C918.454 147.18 916.805 147.609 914.921 146.986Z" fill="black"/>
<path d="M929.564 140.29L927.171 139.475L928.097 135.814L930.49 136.63L929.564 140.29ZM926.935 150.683L924.543 149.867L925.469 146.207L927.861 147.022L926.935 150.683Z" fill="black"/>
</svg>
